#N canvas 361 -385 638 293 10;
#X obj 199 40 sig~;
#X obj 200 24 hsl 64 12 0 1 0 0 empty empty speed 16 6 1 8 -262144
-1 -1 0 1;
#N canvas 360 -1032 1280 941 turbine 1;
#X obj 13 173 osc~;
#X obj 52 172 osc~;
#X obj 125 171 osc~;
#X obj 163 171 osc~;
#X obj 242 167 osc~;
#X obj 26 62 unpack f f f f f;
#X obj 13 88 sig~;
#X obj 51 88 sig~;
#X obj 125 87 sig~;
#X obj 163 87 sig~;
#X obj 241 86 sig~;
#X obj 13 117 *~;
#X obj 51 119 *~;
#X obj 125 130 *~;
#X obj 162 128 *~;
#X obj 240 124 *~;
#X obj 143 192 *~ 0.4;
#X obj 26 20 loadbang;
#X obj 90 237 outlet~;
#X obj 20 0 inlet~ engine speed;
#X obj 32 195 *~ 0.5;
#X obj 90 216 clip~ -0.5 0.5;
#X obj 83 105 osc~;
#X obj 84 85 * 0.1;
#X obj 274 85 * 0.33;
#X obj 195 85 * 0.7;
#X obj 271 107 osc~;
#X obj 194 110 osc~;
#X obj 77 126 *~ 0.1;
#X obj 186 130 *~ 0.05;
#X obj 266 129 *~ 0.5;
#X obj 162 149 *~;
#X obj 240 146 *~;
#X obj 258 40 inlet;
#X obj 52 146 *~;
#X obj 258 62 * 0.1;
#X msg 26 41 3301 5029 7320 11450 13524;
#X connect 0 0 20 0;
#X connect 1 0 20 0;
#X connect 2 0 21 0;
#X connect 3 0 16 0;
#X connect 4 0 16 0;
#X connect 5 0 6 0;
#X connect 5 1 7 0;
#X connect 5 2 8 0;
#X connect 5 3 9 0;
#X connect 5 4 10 0;
#X connect 6 0 11 0;
#X connect 7 0 12 0;
#X connect 8 0 13 0;
#X connect 9 0 14 0;
#X connect 10 0 15 0;
#X connect 11 0 0 0;
#X connect 12 0 34 0;
#X connect 13 0 2 0;
#X connect 14 0 31 0;
#X connect 15 0 32 0;
#X connect 16 0 21 0;
#X connect 17 0 36 0;
#X connect 19 0 15 1;
#X connect 19 0 14 1;
#X connect 19 0 13 1;
#X connect 19 0 11 1;
#X connect 19 0 12 1;
#X connect 20 0 21 0;
#X connect 21 0 18 0;
#X connect 22 0 28 0;
#X connect 23 0 22 0;
#X connect 24 0 26 0;
#X connect 25 0 27 0;
#X connect 26 0 30 0;
#X connect 27 0 29 0;
#X connect 28 0 34 1;
#X connect 29 0 31 1;
#X connect 30 0 32 1;
#X connect 31 0 3 0;
#X connect 32 0 4 0;
#X connect 33 0 23 0;
#X connect 33 0 25 0;
#X connect 33 0 24 0;
#X connect 33 0 35 0;
#X connect 34 0 1 0;
#X connect 35 0 2 1;
#X connect 36 0 5 0;
#X restore 20 25 pd turbine;
#X obj 24 127 dac~;
#X obj 195 3 r velocity;
#N canvas -7 0 958 988 r2d2 1;
#X obj 163 626 +~;
#X obj 163 648 cos~;
#X obj 179 469 phasor~;
#X obj 242 577 osc~;
#X obj 179 238 random 1000;
#X obj 179 260 / 1000;
#X obj 179 404 line~;
#X obj 179 381 pack f f;
#X obj 179 283 t f b;
#X obj 230 313 random 2;
#X obj 230 359 *;
#X obj 158 673 *~;
#X obj 147 699 lop~ 10000;
#X obj 147 721 lop~ 10000;
#X obj 147 743 hip~ 100;
#X obj 147 765 hip~ 100;
#X obj 242 551 *~;
#X obj 242 600 *~;
#X obj 163 506 *~;
#X obj 130 470 +~ 100;
#X obj 45 174 s period;
#X obj 246 337 r period;
#X obj 47 381 line~;
#X obj 47 359 pack f f;
#X obj 98 291 random 2;
#X obj 98 337 *;
#X obj 114 315 r period;
#X obj 116 237 s change;
#X obj 47 218 r change;
#X obj 12 290 random 9000;
#X obj 47 239 random 3;
#X obj 47 261 sel 0;
#X obj 279 553 line~;
#X obj 279 531 pack f f;
#X obj 330 463 random 2;
#X obj 330 509 *;
#X obj 346 487 r period;
#X obj 279 390 r change;
#X obj 279 433 sel 0;
#X obj 279 576 +~ 0.2;
#X obj 244 462 random 100;
#X obj 244 485 / 200;
#X obj 279 411 random 4;
#X obj 369 406 line~;
#X obj 369 384 pack f f;
#X obj 420 319 random 2;
#X obj 420 362 *;
#X obj 436 340 r period;
#X obj 369 249 r change;
#X obj 369 292 sel 0;
#X obj 334 318 random 800;
#X obj 369 428 +~ 20;
#X obj 369 270 random 4;
#X obj 179 440 *~ 0.6;
#X obj 144 89 r period;
#X obj 179 216 metro;
#X obj 209 2 r change;
#X obj 209 45 sel 0;
#X obj 209 66 random 2;
#X obj 209 87 + 1;
#X obj 209 131 /;
#X obj 209 108 t b f;
#X obj 179 154 loadbang;
#X obj 179 174 del 100;
#X msg 179 195 1;
#X obj 48 115 hsl 64 12 0 1 0 1 empty empty talk-speed 8 6 1 8 -262144
-1 -1 6300 1;
#X obj 45 132 * 600;
#X obj 45 152 + 100;
#X obj 147 811 outlet~;
#X obj 209 23 random 3;
#X obj 339 613 bng 15 250 50 0 empty empty empty 17 7 0 10 -262144
-1 -1;
#X obj 370 628 del 2000;
#X obj 326 665 line;
#X msg 295 646 0.5 150;
#X msg 372 647 0 450;
#X obj 371 592 r cam;
#X obj 147 788 *~ 0.1;
#X connect 0 0 1 0;
#X connect 1 0 11 0;
#X connect 2 0 18 1;
#X connect 3 0 17 0;
#X connect 4 0 5 0;
#X connect 5 0 8 0;
#X connect 6 0 53 0;
#X connect 7 0 6 0;
#X connect 8 0 7 0;
#X connect 8 1 9 0;
#X connect 9 0 10 0;
#X connect 10 0 7 1;
#X connect 11 0 12 0;
#X connect 12 0 13 0;
#X connect 13 0 14 0;
#X connect 14 0 15 0;
#X connect 15 0 76 0;
#X connect 16 0 3 0;
#X connect 17 0 0 1;
#X connect 18 0 0 0;
#X connect 19 0 18 0;
#X connect 21 0 10 1;
#X connect 22 0 19 0;
#X connect 23 0 22 0;
#X connect 24 0 25 0;
#X connect 25 0 23 1;
#X connect 26 0 25 1;
#X connect 28 0 30 0;
#X connect 29 0 23 0;
#X connect 30 0 31 0;
#X connect 31 0 29 0;
#X connect 31 0 24 0;
#X connect 32 0 39 0;
#X connect 33 0 32 0;
#X connect 34 0 35 0;
#X connect 35 0 33 1;
#X connect 36 0 35 1;
#X connect 37 0 42 0;
#X connect 38 0 34 0;
#X connect 38 0 40 0;
#X connect 39 0 17 1;
#X connect 40 0 41 0;
#X connect 41 0 33 0;
#X connect 42 0 38 0;
#X connect 43 0 51 0;
#X connect 44 0 43 0;
#X connect 45 0 46 0;
#X connect 46 0 44 1;
#X connect 47 0 46 1;
#X connect 48 0 52 0;
#X connect 49 0 45 0;
#X connect 49 0 50 0;
#X connect 50 0 44 0;
#X connect 51 0 16 1;
#X connect 52 0 49 0;
#X connect 53 0 2 0;
#X connect 53 0 16 0;
#X connect 54 0 60 0;
#X connect 55 0 4 0;
#X connect 55 0 27 0;
#X connect 56 0 69 0;
#X connect 57 0 58 0;
#X connect 58 0 59 0;
#X connect 59 0 61 0;
#X connect 60 0 55 1;
#X connect 61 0 60 0;
#X connect 61 1 60 1;
#X connect 62 0 63 0;
#X connect 63 0 64 0;
#X connect 64 0 55 0;
#X connect 65 0 66 0;
#X connect 66 0 67 0;
#X connect 67 0 20 0;
#X connect 69 0 57 0;
#X connect 70 0 73 0;
#X connect 70 0 71 0;
#X connect 71 0 74 0;
#X connect 72 0 11 1;
#X connect 73 0 72 0;
#X connect 74 0 72 0;
#X connect 75 0 71 0;
#X connect 75 0 73 0;
#X connect 76 0 68 0;
#X restore 127 113 pd r2d2;
#N canvas 1001 -1024 638 932 burn 1;
#X obj 11 117 noise~;
#X obj 136 55 loadbang;
#X msg 165 90 0.6;
#X obj 43 21 inlet~;
#X obj 13 300 outlet~;
#X obj 36 69 *~;
#X msg 138 90 1;
#X obj 11 201 *~ 2;
#X obj 11 159 vcf~ 0 1;
#X obj 88 21 inlet;
#X obj 11 222 clip~ -0.9 0.9;
#X obj 11 180 hip~ 200;
#X obj 13 267 vcf~ 0 10;
#X obj 42 244 *~ 700;
#X obj 36 91 *~ 100;
#X obj 85 80 * 100;
#X obj 85 103 + 250;
#X obj 11 139 bp~ 400 10;
#X connect 0 0 17 0;
#X connect 1 0 2 0;
#X connect 1 0 6 0;
#X connect 2 0 12 2;
#X connect 3 0 5 0;
#X connect 3 0 5 1;
#X connect 3 0 13 0;
#X connect 5 0 14 0;
#X connect 6 0 8 2;
#X connect 7 0 10 0;
#X connect 8 0 11 0;
#X connect 9 0 15 0;
#X connect 10 0 12 0;
#X connect 11 0 7 0;
#X connect 12 0 4 0;
#X connect 13 0 12 1;
#X connect 14 0 8 1;
#X connect 15 0 16 0;
#X connect 16 0 17 1;
#X connect 17 0 8 0;
#X restore 154 68 pd burn;
#X obj 25 68 +~;
#X obj 25 87 lop~ 1000;
#X obj 25 107 *~ 0.2;
#X obj 154 90 *~;
#X obj 226 63 r grounded;
#X obj 215 111 hsl 64 12 0 5 0 0 empty empty empty 16 6 1 8 -262144
-1 -1 0 1;
#X obj 154 49 lop~ 2;
#X obj 209 86 * 5;
#X obj 25 47 *~ 0.01;
#X connect 0 0 13 0;
#X connect 1 0 0 0;
#X connect 1 0 6 1;
#X connect 1 0 2 1;
#X connect 2 0 15 0;
#X connect 4 0 1 0;
#X connect 5 0 9 0;
#X connect 6 0 10 0;
#X connect 7 0 8 0;
#X connect 8 0 9 0;
#X connect 9 0 3 0;
#X connect 9 0 3 1;
#X connect 10 0 7 1;
#X connect 11 0 14 0;
#X connect 12 0 10 1;
#X connect 13 0 2 0;
#X connect 13 0 6 0;
#X connect 14 0 10 1;
#X connect 15 0 7 0;
